# xmcd CD database file
#
# Track frame offsets:
#	150
#	17415
#	47062
#	60618
#	76895
#	97195
#	109982
#	125063
#	140673
#	158401
#	174684
#
# Disc length: 2592 seconds
#
# Revision: 18
# Processed by: cddbd v1.5.2PL0 Copyright (c) Steve Scherf et al.
# Submitted via: CDex 1.51
#
DISCID=910a1e0b
DTITLE=Jethro Tull - The Essential
DYEAR=2007
DGENRE=Folk-Rock
TTITLE0=Teacher
TTITLE1=Aqualung
TTITLE2=Thick As A Brick Edit #1
TTITLE3=Bungle In The Jungle
TTITLE4=Locomotive Breath
TTITLE5=Fat Man
TTITLE6=Living In The Past
TTITLE7=A Passion Play Edit #8
TTITLE8=Skating Away (On The Thin Ice Of The New Day)
TTITLE9=Rainbow Blues
TTITLE10=Nothing Is Easy
EXTD=YEAR: 2007
EXTT0=
EXTT1=
EXTT2=
EXTT3=
EXTT4=
EXTT5=
EXTT6=
EXTT7=
EXTT8=
EXTT9=
EXTT10=
PLAYORDER=
